<svg xmlns="http://www.w3.org/2000/svg" width="480" height="96" viewBox="0 0 480 96" role="img" aria-label="IZMYSH mouse mark">
<rect x=".5" y=".5" width="479" height="95" rx="12" fill="#0B0D09" stroke="#29301F"/>
<path d="M27 59H183M298 59H453" fill="none" stroke="#D5FF00" stroke-opacity=".3"/>
<g transform="translate(183 5) scale(.58)"><g fill="#D5FF00">
  <path d="M12 91H37Q44 91 44 98V103Q44 110 51 110H76" fill="none" stroke="#D5FF00" stroke-width="6" stroke-linecap="round" stroke-linejoin="round"/>
  <circle cx="12" cy="91" r="5"/>
  <path d="M69 103C72 78 89 61 113 60C129 52 147 56 162 68L181 84C168 100 148 110 124 110H73C70 110 68 107 69 103Z"/>
  <circle cx="119" cy="48" r="25"/>
  <circle cx="156" cy="80" r="4" fill="#0B0D09"/>
  <path d="M108 49C108 39 119 35 128 41" fill="none" stroke="#0B0D09" stroke-width="4.5" stroke-linecap="round"/>
</g></g>
</svg>
